<svg width="1440" height="302" viewBox="0 0 1440 302" fill="none" xmlns="http://www.w3.org/2000/svg">
<path d="M0 142H14.1C28.2 142 56 142 85 136.7C112.9 131 141 121 169 94C197.6 67 226 25 254 8.69996C282.4 -7.00004 311 2.99996 339 19.3C367.1 35 395 57 424 99.3C451.8 142 480 206 508 243.3C536.5 281 565 291 593 270C621.2 249 649 195 678 190C705.9 185 734 227 762 216.7C790.6 206 819 142 847 94C875.3 46 904 14 932 35.3C960 57 988 131 1016 142C1044.7 153 1073 99 1101 83.3C1129.4 67 1158 89 1186 88.7C1214.1 89 1242 67 1271 67.3C1298.8 67 1327 89 1355 110C1383.5 131 1412 153 1426 163.3L1440 174V302H1425.9C1411.8 302 1384 302 1355 302C1327.1 302 1299 302 1271 302C1242.4 302 1214 302 1186 302C1157.6 302 1129 302 1101 302C1072.9 302 1045 302 1016 302C988.2 302 960 302 932 302C903.5 302 875 302 847 302C818.8 302 791 302 762 302C734.1 302 706 302 678 302C649.4 302 621 302 593 302C564.7 302 536 302 508 302C480 302 452 302 424 302C395.3 302 367 302 339 302C310.6 302 282 302 254 302C225.9 302 198 302 169 302C141.2 302 113 302 85 302C56.5 302 28 302 14 302H0V142Z" fill="#6C467A" fill-opacity="0.1"/>
</svg>
