<svg width="130" height="20" viewBox="0 0 130 20" fill="none" xmlns="http://www.w3.org/2000/svg">
<g clip-path="url(#clip0_68_70)">
<path d="M9.90384 0.680101L7.40974 5.73705L1.82954 6.55059C0.828841 6.69573 0.427799 7.92941 1.15349 8.636L5.19065 12.57L4.23579 18.1273C4.06391 19.1318 5.1219 19.8843 6.00801 19.4145L11 16.7905L15.992 19.4145C16.8781 19.8804 17.9361 19.1318 17.7643 18.1273L16.8094 12.57L20.8465 8.636C21.5722 7.92941 21.1712 6.69573 20.1705 6.55059L14.5903 5.73705L12.0962 0.680101C11.6493 -0.221288 10.3545 -0.232746 9.90384 0.680101Z" fill="#FCB13A"/>
</g>
<g clip-path="url(#clip1_68_70)">
<path d="M36.9038 0.680101L34.4097 5.73705L28.8295 6.55059C27.8288 6.69573 27.4278 7.92941 28.1535 8.636L32.1906 12.57L31.2358 18.1273C31.0639 19.1318 32.1219 19.8843 33.008 19.4145L38 16.7905L42.992 19.4145C43.8781 19.8804 44.9361 19.1318 44.7643 18.1273L43.8094 12.57L47.8465 8.636C48.5722 7.92941 48.1712 6.69573 47.1705 6.55059L41.5903 5.73705L39.0962 0.680101C38.6493 -0.221288 37.3545 -0.232746 36.9038 0.680101Z" fill="#FCB13A"/>
</g>
<g clip-path="url(#clip2_68_70)">
<path d="M63.9038 0.680101L61.4097 5.73705L55.8295 6.55059C54.8288 6.69573 54.4278 7.92941 55.1535 8.636L59.1906 12.57L58.2358 18.1273C58.0639 19.1318 59.1219 19.8843 60.008 19.4145L65 16.7905L69.992 19.4145C70.8781 19.8804 71.9361 19.1318 71.7643 18.1273L70.8094 12.57L74.8465 8.636C75.5722 7.92941 75.1712 6.69573 74.1705 6.55059L68.5903 5.73705L66.0962 0.680101C65.6493 -0.221288 64.3545 -0.232746 63.9038 0.680101Z" fill="#FCB13A"/>
</g>
<g clip-path="url(#clip3_68_70)">
<path d="M90.9038 0.680101L88.4097 5.73705L82.8295 6.55059C81.8288 6.69573 81.4278 7.92941 82.1535 8.636L86.1906 12.57L85.2358 18.1273C85.0639 19.1318 86.1219 19.8843 87.008 19.4145L92 16.7905L96.992 19.4145C97.8781 19.8804 98.9361 19.1318 98.7643 18.1273L97.8094 12.57L101.847 8.636C102.572 7.92941 102.171 6.69573 101.171 6.55059L95.5903 5.73705L93.0962 0.680101C92.6493 -0.221288 91.3545 -0.232746 90.9038 0.680101Z" fill="#FCB13A"/>
</g>
<g clip-path="url(#clip4_68_70)">
<path d="M117.904 0.680101L115.41 5.73705L109.83 6.55059C108.829 6.69573 108.428 7.92941 109.153 8.636L113.191 12.57L112.236 18.1273C112.064 19.1318 113.122 19.8843 114.008 19.4145L119 16.7905L123.992 19.4145C124.878 19.8804 125.936 19.1318 125.764 18.1273L124.809 12.57L128.847 8.636C129.572 7.92941 129.171 6.69573 128.171 6.55059L122.59 5.73705L120.096 0.680101C119.649 -0.221288 118.355 -0.232746 117.904 0.680101Z" fill="#FCB13A"/>
</g>
<defs>
<clipPath id="clip0_68_70">
<rect width="22" height="19.5556" fill="white"/>
</clipPath>
<clipPath id="clip1_68_70">
<rect width="22" height="19.5556" fill="white" transform="translate(27)"/>
</clipPath>
<clipPath id="clip2_68_70">
<rect width="22" height="19.5556" fill="white" transform="translate(54)"/>
</clipPath>
<clipPath id="clip3_68_70">
<rect width="22" height="19.5556" fill="white" transform="translate(81)"/>
</clipPath>
<clipPath id="clip4_68_70">
<rect width="22" height="19.5556" fill="white" transform="translate(108)"/>
</clipPath>
</defs>
</svg>
